<svg width="52" height="24" viewBox="0 0 52 24" fill="none" xmlns="http://www.w3.org/2000/svg">
<rect x="6" y="2" width="40" height="20" rx="10" fill="#C0C0C0"/>
<circle cx="16" cy="12" r="7" fill="white"/>
<path opacity="0.1" d="M39.0005 8C38.7354 8.00004 38.4812 8.10529 38.2938 8.29261L36.002 10.5828L33.7199 8.30237C33.7166 8.29909 33.7134 8.29584 33.7101 8.29261C33.5235 8.10815 33.2718 8.00445 33.0093 8.0039L32.9995 8.01756C32.7344 8.01756 32.4802 8.12279 32.2928 8.31009C32.1053 8.4974 32 8.75144 32 9.01634C32 9.28122 32.1054 9.53523 32.2928 9.72251L34.5847 12.0127L32.2928 14.3029C32.1087 14.4888 32.005 14.7396 32.0039 15.0012C32.0039 15.2661 32.1092 15.5202 32.2967 15.7075C32.4841 15.8948 32.7383 16 33.0034 16C33.2685 16 33.5227 15.8947 33.7101 15.7074L36.002 13.4172L38.284 15.6976C38.3772 15.7933 38.4886 15.8694 38.6116 15.9213C38.7347 15.9732 38.8669 16 39.0005 16C39.2656 16 39.5198 15.8948 39.7072 15.7075C39.8947 15.5202 40 15.2661 40 15.0012C40 14.7363 39.8946 14.4823 39.7072 14.295L37.4075 11.999L39.6896 9.71861C39.7872 9.62574 39.8651 9.51409 39.9184 9.39039C39.9718 9.26669 39.9995 9.13348 40 8.99878C40 8.73389 39.8947 8.47984 39.7072 8.29254C39.5198 8.10523 39.2656 8 39.0005 8Z" fill="black"/>
</svg>
